<?xml version="1.0" encoding="UTF-8"?>
<svg width="512" height="512" viewBox="0 0 512 512" fill="none" xmlns="http://www.w3.org/2000/svg">
    <!-- Background circle -->
    <circle cx="256" cy="256" r="256" fill="#2563EB"/>
    
    <!-- Document icon -->
    <path d="M160 128H352C361.941 128 370 136.059 370 146V366C370 375.941 361.941 384 352 384H160C150.059 384 142 375.941 142 366V146C142 136.059 150.059 128 160 128Z" fill="white"/>
    
    <!-- Document lines -->
    <rect x="180" y="180" width="152" height="16" rx="8" fill="#2563EB"/>
    <rect x="180" y="220" width="152" height="16" rx="8" fill="#2563EB"/>
    <rect x="180" y="260" width="152" height="16" rx="8" fill="#2563EB"/>
    <rect x="180" y="300" width="112" height="16" rx="8" fill="#2563EB"/>
    
    <!-- Checkmark -->
    <path d="M320 160L352 192L384 160" stroke="white" stroke-width="24" stroke-linecap="round" stroke-linejoin="round"/>
</svg> 